<?xml version="1.0" encoding="UTF-8"?><svg id="Layer_1" xmlns="http://www.w3.org/2000/svg" viewBox="0 0 1246 1031"><defs><style>.cls-1{fill:#00429c;}</style></defs><path class="cls-1" d="M644.06,515.23h-51.37c-4.97,0-9-4.03-9-9s4.03-9,9-9h51.37c4.97,0,9,4.03,9,9s-4.03,9-9,9Z"/><circle class="cls-1" cx="544.27" cy="427.69" r="20.24"/><circle class="cls-1" cx="670.24" cy="441.19" r="20.24"/><g><g><path class="cls-1" d="M611.88,721.68c-5.4,0-11.03-.51-16.89-1.65-1.44-.2-13.23-2.01-26.08-8.17-18.17-8.72-29.66-22.03-33.23-38.48-2.12-9.76-1.25-20.14,2.52-30,3.43-8.99,8.18-20.85,11.36-26.32,1.5-2.59,2.15-5.33,1.88-7.91-.58-5.45-4.6-13.83-20.47-22.82l-.33-.21c-.39-.28-9.57-6.86-9.87-17.51-.22-7.71,4.19-15.2,13.09-22.25,14.67-11.62,34.29-13.48,49.99-4.75,13.02,7.24,22.29,22.69,25.44,42.39,.34,2.15-1.12,4.17-3.27,4.51-2.14,.34-4.17-1.12-4.51-3.27-3.93-24.56-16.33-33.87-21.48-36.74-12.91-7.18-29.11-5.59-41.27,4.04-6.83,5.41-10.23,10.73-10.11,15.8,.14,6.16,5.53,10.57,6.42,11.26,18.61,10.6,23.44,21.46,24.2,28.72,.45,4.26-.55,8.65-2.9,12.7-2.27,3.91-6.11,12.86-10.81,25.18-3.22,8.43-3.97,17.26-2.18,25.52,3.06,14.13,12.74,25.22,28.74,32.95,12.32,5.95,23.92,7.56,24.03,7.58l.24,.04c50.72,9.94,83.39-31.96,85.58-34.87,8.53-15.14,10.97-27.5,7.04-35.76-4.25-8.94-14.85-10.85-14.95-10.87-2.14-.37-3.59-2.39-3.23-4.53,.36-2.14,2.36-3.6,4.51-3.25,.6,.1,14.68,2.51,20.75,15.17,5.22,10.89,2.74,25.47-7.38,43.33l-.23,.36c-.32,.44-29.28,39.83-76.6,39.83Zm73.41-42.13h0Z"/><path class="cls-1" d="M647.75,624.19c-.64,0-1.29-.16-1.91-.49-1.72-.93-2.42-3.09-1.75-4.93,10.55-28.8,42.1-39.68,45.36-40.73,10.78-4.76,17.24-11.07,19.19-18.75,1.52-6-1.17-12.28-6.7-15.6-27.75-16.68-54.73,4.61-65.04,14.54-2.16,2.08-4.18,4.47-6.01,7.09-14.51,20.79-24.42,25.5-27.19,26.47-3.59,2.07-6.66,2.87-9.2,2.97-4.6,.17-6.68-5.75-3.09-8.64h0l-.1-.12c.92,.95,3.79,1.76,8.75-1.21l.51-.31,.58-.14h0s8.86-2.87,23.28-23.53c2.12-3.04,4.48-5.82,7.01-8.26,34.87-33.59,63.76-22.11,74.56-15.61,8.54,5.13,12.67,14.9,10.28,24.3-2.59,10.21-10.62,18.32-23.86,24.12l-.41,.15c-.31,.1-31.07,9.98-40.56,36.09-.58,1.6-2.09,2.6-3.7,2.6Z"/></g><path class="cls-1" d="M668.77,646.2c-.47,0-.95-.09-1.42-.27-2.03-.78-3.04-3.07-2.26-5.1,5.25-13.6,6.05-24.07,2.31-30.25-2.94-4.87-7.87-5.56-7.92-5.56-2.16-.25-3.71-2.2-3.47-4.37,.25-2.16,2.2-3.72,4.36-3.47,.36,.04,8.79,1.1,13.76,9.32,5.13,8.48,4.55,20.98-1.7,37.18-.6,1.56-2.1,2.52-3.68,2.52Z"/></g><path class="cls-1" d="M498.84,350.06c-1.25,0-2.51-.39-3.58-1.21-2.59-1.98-3.1-5.67-1.13-8.27,.57-.76,14.32-18.58,36.17-20.77,13.92-1.4,27.7,3.8,40.95,15.45,2.45,2.16,2.69,5.89,.53,8.34-2.16,2.45-5.9,2.69-8.34,.53-10.64-9.36-21.36-13.6-31.86-12.58-16.69,1.62-27.93,16.03-28.04,16.18-1.17,1.52-2.93,2.32-4.7,2.32Z"/><path class="cls-1" d="M718.5,420.46c-1.88,0-3.74-.9-4.88-2.57-12.23-17.84-25.77-28.22-40.26-30.86-16.55-3-28.5,5.16-28.62,5.25-2.68,1.87-6.36,1.21-8.23-1.47-1.87-2.68-1.21-6.36,1.47-8.23,.65-.45,16.18-11.07,37.5-7.18,17.71,3.23,33.82,15.28,47.9,35.81,1.85,2.69,1.16,6.37-1.53,8.22-1.02,.7-2.19,1.04-3.34,1.04Z"/><g><path class="cls-1" d="M543.3,645.06c-54.7-28.77-92.08-86.17-92.08-152.14,0-48.49,20.65-94.96,56.65-127.49,2.42-2.19,2.61-5.93,.42-8.35-2.19-2.42-5.93-2.61-8.35-.42-38.47,34.77-60.54,84.44-60.54,136.26,0,71.3,40.85,133.23,100.37,163.63l3.54-11.49Z"/><path class="cls-1" d="M623,309.32c-13.09,0-26.15,1.38-38.82,4.11-3.19,.69-5.22,3.83-4.53,7.02,.69,3.19,3.83,5.22,7.02,4.53,11.86-2.55,24.08-3.85,36.33-3.85,94.72,0,171.78,77.06,171.78,171.78,0,70.2-42.33,130.69-102.81,157.31v12.84c67.16-27.32,114.63-93.29,114.63-170.15,0-101.24-82.37-183.61-183.61-183.61Z"/></g></svg>