<svg width="268" height="119" viewBox="0 0 268 119" fill="none" xmlns="http://www.w3.org/2000/svg">
<path d="M98.0255 52.9901C99.2144 52.5903 100.488 52.5108 101.717 52.7594C103.895 53.1878 105.83 54.4242 107.134 56.2204C108.473 57.973 109.453 59.9724 110.018 62.1042C110.788 65.5369 110.827 69.0932 110.134 72.5422C109.459 76.059 108.375 79.4848 106.903 82.7494C108.073 83.2458 109.35 83.4323 110.613 83.2908C111.876 83.1494 113.08 82.6848 114.111 81.9419C116.455 80.4036 118.511 77.9809 120.28 74.6737C122.511 73.6739 123.741 74.2892 123.972 76.5196C121.511 81.2112 118.455 84.8444 114.803 87.4191C111.152 89.9938 106.674 91.4734 101.371 91.858C100.141 93.4731 98.8129 95.0681 97.3882 96.643C96.0054 98.1854 94.4806 99.5943 92.8339 100.851C91.218 102.084 89.4558 103.111 87.5875 103.911C85.707 104.716 83.7056 105.203 81.6653 105.35C79.3038 105.529 76.9333 105.153 74.7432 104.252C72.6874 103.382 70.8407 102.084 69.3264 100.445C67.7725 98.7718 66.523 96.84 65.6347 94.7366C64.7086 92.5711 64.1248 90.2748 63.9042 87.93C63.6744 85.216 63.7907 82.4839 64.2503 79.7993C65.1884 74.3002 67.2715 69.0595 70.3647 64.417C71.8595 62.1563 73.5987 60.0671 75.5508 58.1872C77.4784 56.4142 79.6301 54.9015 81.9509 53.6878C84.2598 52.4686 86.7886 51.7215 89.3894 51.4904C90.7913 51.3415 92.206 51.3618 93.603 51.5508C95.0253 51.7221 96.4087 52.1306 97.6958 52.7594L98.0255 52.9901ZM92.4878 78.5962C93.7495 77.4808 95.1671 76.5554 96.696 75.8494C97.3222 75.5103 98.0195 75.3231 98.7314 75.3031C99.4433 75.2831 100.15 75.4307 100.794 75.734C101.341 76.0538 101.813 76.4865 102.179 77.003C102.797 74.9 103.165 72.7316 103.277 70.5425C103.389 68.2951 103.176 66.0434 102.646 63.8566C102.331 62.6863 101.759 61.6012 100.97 60.6813C100.154 59.7993 99.2464 59.0073 98.2617 58.319C96.9442 58.2361 95.6218 58.3528 94.3392 58.6651C93.0948 58.9781 91.8936 59.443 90.7628 60.0495C88.6901 61.1694 86.8513 62.6762 85.346 64.4884C83.6163 66.5079 82.1249 68.7199 80.9016 71.0808C79.6362 73.4983 78.5954 76.0269 77.7922 78.6347C77.0218 81.0466 76.5567 83.5455 76.4078 86.0731C76.2612 88.1765 76.5147 90.2885 77.1549 92.2975C77.4161 93.1351 77.8484 93.9094 78.4243 94.5713C79.0001 95.2333 79.7072 95.7684 80.5006 96.143C82.4234 97.1429 84.652 97.1996 87.1864 96.3133C89.7208 95.427 92.1417 93.6343 94.4491 90.935C93.3981 90.5645 92.4076 90.0406 91.51 89.3803C90.6352 88.7387 89.9392 87.8838 89.4883 86.8972C89.1847 86.2354 89.0327 85.5143 89.0431 84.7863C89.0536 84.0583 89.2263 83.3418 89.5487 82.689C90.2385 81.1383 91.2388 79.7453 92.4878 78.5962Z" fill="#6CC2B6"/>
<path d="M99.0088 93.1984C103.7 87.8146 114.902 82.9967 118.671 76.8053C122.493 70.4978 125.698 63.836 128.241 56.9126C127.349 55.2932 126.948 53.4492 127.087 51.6057C127.196 49.9927 127.647 48.4214 128.411 46.9965C129.037 45.8027 130.028 44.8403 131.24 44.2497C131.792 43.9838 132.407 43.8754 133.017 43.9365C133.626 43.9975 134.207 44.2257 134.696 44.5958C135.311 44.9565 135.797 45.5007 136.087 46.152C136.376 46.8033 136.455 47.529 136.311 48.2271C136.074 49.8284 135.648 51.3959 135.042 52.8968C135.626 53.2154 136.283 53.3746 136.948 53.3582H138.849C140.729 53.2271 142.587 52.8786 144.387 52.3199C145.176 51.0821 146.194 50.0062 147.386 49.1501C148.309 48.6007 149.419 48.8259 150.726 49.9027C153.803 52.2869 155.553 54.5357 155.978 56.6489C156.403 58.7622 155.729 60.7417 153.957 62.5876C151.027 66.3563 148.183 70.385 145.425 74.6737C142.934 78.4421 140.846 82.4618 139.195 86.6664C138.195 89.3583 137.772 91.5302 137.926 93.182C138.08 94.8337 138.657 95.9105 139.657 96.4122C140.656 96.914 141.982 96.8572 143.634 96.2419C145.665 95.3897 147.526 94.1782 149.128 92.6656C151.708 90.2727 154.062 87.6465 156.16 84.8205C158.599 81.629 160.76 78.2343 162.62 74.6737C163.697 74.0584 164.561 74.0017 165.213 74.5034C165.531 74.7403 165.794 75.0432 165.983 75.3912C166.173 75.7392 166.285 76.1242 166.312 76.5196C164.235 80.4421 162.1 84.0551 159.906 87.3586C157.636 90.7656 155.028 93.9351 152.122 96.8188C149.961 99.0699 147.425 100.929 144.628 102.312C142.353 103.432 139.887 104.116 137.36 104.329C135.219 104.513 133.068 104.115 131.136 103.175C129.302 102.271 127.773 100.848 126.741 99.0822C125.6 97.0368 125.004 94.7327 125.01 92.3909C124.933 89.7429 125.549 86.725 126.856 83.3373C128.45 79.1594 130.379 75.1175 132.625 71.2512C134.62 67.7207 136.854 64.3306 139.31 61.1043C138.884 61.1244 138.457 61.0855 138.041 60.9889C137.146 60.8748 136.26 60.7004 135.388 60.4671C134.284 60.191 133.206 59.8235 132.163 59.3683C131.313 61.5987 130.237 64.2321 128.933 67.2682C127.629 70.3044 126.091 73.4321 124.318 76.6514C122.853 79.4203 121.374 81.9565 119.879 84.2602C118.565 86.3354 117.039 88.2685 115.325 90.0286L115.017 90.3197C112.716 92.3976 109.712 93.5263 106.612 93.4786C103.64 93.4401 99.8933 93.3742 99.0088 93.1984Z" fill="#6CC2B6"/>
<path d="M201.702 40.6513C200.514 42.432 199.589 44.3748 198.955 46.4197C198.063 49.063 197.424 51.7856 197.049 54.5503C196.628 57.5133 196.225 60.5879 195.841 63.7743C195.456 66.9606 195.033 70.1909 194.572 73.4651C194.129 76.6483 193.434 79.7914 192.495 82.8648C194.028 83.2495 195.632 83.2495 197.165 82.8648C198.619 82.4989 200.002 81.8937 201.257 81.0739C202.486 80.2713 203.595 79.3005 204.554 78.1897C205.485 77.1212 206.279 75.94 206.916 74.6737C208.992 73.7508 210.223 74.3661 210.608 76.5196C209.258 78.8884 207.776 81.1792 206.169 83.3812C204.49 85.6689 202.242 87.4776 199.648 88.6277C198.013 89.4558 196.266 90.0389 194.462 90.3582C192.672 90.6672 190.854 90.7832 189.039 90.7043C187.172 93.6186 184.865 96.2261 182.2 98.4339C179.527 100.592 176.475 102.233 173.201 103.274C169.756 104.469 166.122 105.028 162.477 104.922C159.139 104.874 155.883 103.884 153.083 102.065C150.351 100.26 148.641 97.2802 147.952 93.127C147.644 91.3917 147.644 89.6158 147.952 87.8806C148.253 86.1597 148.808 84.4933 149.6 82.9362C150.403 81.3679 151.412 79.9138 152.6 78.6127C154.261 76.7694 156.297 75.3015 158.57 74.3068C160.844 73.3121 163.303 72.8136 165.785 72.8443C167.316 70.7677 168.929 68.616 170.625 66.3893L175.701 59.6979C177.393 57.4675 179.026 55.27 180.601 53.1055C182.176 50.941 183.656 48.9431 185.04 47.1119C185.534 46.1465 186.113 45.2273 186.77 44.3651C187.474 43.4362 188.346 42.6479 189.342 42.0412C190.458 41.3398 191.66 40.7858 192.918 40.3931C194.278 39.9609 195.699 39.7459 197.126 39.7559C198.695 39.7571 200.249 40.0612 201.702 40.6513ZM173.685 92.0887C174.675 90.8196 175.49 89.4226 176.107 87.9355C174.162 87.2778 172.272 86.4677 170.454 85.5128C169.454 85.0513 168.341 84.5898 167.114 84.1284C165.907 83.6662 164.643 83.3687 163.356 83.2439C162.135 83.124 160.902 83.2415 159.725 83.59C158.524 83.9683 157.447 84.665 156.61 85.6062C155.973 86.4183 155.486 87.3373 155.171 88.32C154.825 89.339 154.726 90.4251 154.88 91.4899C155.187 93.7203 156.053 95.3923 157.478 96.5056C158.889 97.6151 160.628 98.2239 162.422 98.2361C164.478 98.2323 166.5 97.7168 168.306 96.7364C170.435 95.6276 172.275 94.0359 173.679 92.0887H173.685ZM182.106 58.9893C180.414 61.2197 178.625 63.5838 176.739 66.0816C174.853 68.5794 172.989 71.0204 171.146 73.4047C172.611 73.7892 174.111 74.2507 175.646 74.7891L180.041 76.7503C180.656 73.8238 181.059 70.8569 181.249 67.8725C181.432 64.873 181.716 61.9119 182.101 58.9893H182.106Z" fill="#6CC2B6"/>
<path d="M263.863 53.4516C263.017 54.6053 261.999 56.1051 260.809 57.9509C259.618 59.7968 258.37 61.7965 257.062 63.9501C255.755 66.1036 254.473 68.3322 253.216 70.6359C251.96 72.9395 250.812 75.1279 249.772 77.2008C247.703 81.5079 246.089 85.1209 244.932 88.0399C243.775 90.9588 243.474 92.8395 244.031 93.6819C244.159 93.878 244.342 94.0318 244.557 94.1237C244.772 94.2157 245.01 94.2416 245.24 94.1983C245.888 94.1464 246.527 94.0116 247.14 93.7973C247.806 93.5783 248.445 93.2873 249.047 92.9292C249.624 92.5831 250.025 92.3359 250.255 92.1821C251.913 91.1354 253.425 89.8757 254.755 88.4354C256.06 87.0174 257.292 85.534 258.446 83.991C259.523 82.526 260.562 80.9896 261.561 79.3818C262.561 77.774 263.477 76.1973 264.308 74.6517C265.08 74.4194 265.904 74.4194 266.676 74.6517C267.33 74.8825 267.775 75.4978 268 76.4976C266.923 78.4973 265.885 80.4586 264.885 82.3814C263.862 84.3395 262.707 86.2263 261.429 88.0289C260.199 89.8601 258.917 91.6291 257.584 93.3358C256.236 95.0315 254.792 96.6492 253.26 98.1812C251.807 99.6297 250.203 100.919 248.475 102.027C246.745 103.141 244.708 103.685 242.652 103.582C240.58 103.608 238.556 102.96 236.884 101.736C235.202 100.523 233.917 98.8385 233.192 96.8957C232.787 95.8977 232.517 94.8502 232.39 93.7808C231.204 95.4909 229.893 97.1105 228.467 98.6262C227.086 100.086 225.491 101.329 223.737 102.312C221.399 103.668 218.701 104.272 216.008 104.043C213.376 103.84 210.894 102.74 208.976 100.928C207.103 99.2436 205.744 97.0653 205.053 94.6433C204.367 92.2627 204.017 89.7977 204.015 87.3202C204.095 84.2296 204.6 81.1647 205.515 78.2117C206.432 75.2295 207.639 72.3443 209.119 69.5976C210.614 66.8503 212.36 64.2463 214.332 61.8185C216.249 59.4457 218.35 57.2284 220.617 55.1876C222.777 53.1845 225.251 51.5495 227.94 50.3477C230.593 49.1315 233.502 48.5773 236.417 48.7325C239.111 48.8215 241.718 49.7136 243.902 51.2945C246.086 52.8754 247.747 55.0729 248.673 57.6048C249.615 56.5081 250.678 55.5221 251.843 54.6657C252.983 53.8077 254.246 53.1261 255.59 52.644C257.005 52.1062 258.517 51.8704 260.029 51.9518C261.445 51.979 262.805 52.5108 263.863 53.4516ZM227.424 85.0513C231.038 82.4381 234.194 79.2432 236.763 75.5967C239.438 71.9651 241.288 67.7936 242.185 63.3732C242.57 61.7961 242.531 60.1449 242.07 58.5882C241.608 57.0097 240.416 56.0666 238.493 55.759C237.005 55.5172 235.48 55.8468 234.225 56.6819C232.956 57.4908 231.761 58.41 230.654 59.4287C227.366 62.6307 224.654 66.3755 222.639 70.4985C220.611 74.6193 219.044 78.9506 217.963 83.4142C216.964 87.8751 217.176 90.816 218.601 92.237C220.025 93.6581 221.967 93.7167 224.424 92.4128C226.057 91.5538 227.586 90.5086 228.978 89.2979C230.401 88.0673 231.764 86.8038 233.071 85.4908C231.987 85.7237 230.883 85.8597 229.775 85.8973C228.671 85.9577 227.885 85.6721 227.424 85.0513Z" fill="#6CC2B6"/>
<path d="M61.6406 50.4246C62.4257 51.3968 63.1104 52.4459 63.6843 53.556C64.2587 54.6575 64.7277 55.8108 65.0852 57.0005C65.4126 57.8785 65.4794 58.8324 65.2775 59.7474C65.0687 60.4286 64.5138 60.7857 63.6294 60.8461C62.7449 60.9065 61.311 60.4011 59.3553 59.3793C57.1578 58.2806 55.0317 57.2807 52.9771 56.3797C50.9334 55.4843 48.9337 54.7042 46.978 54.0175C49.4102 58.0217 51.5829 62.178 53.4825 66.4607C55.4732 70.8701 57.1582 75.4113 58.5257 80.052C59.7725 84.1914 60.6061 88.4442 61.0144 92.7479C61.355 96.7034 60.9722 99.8714 59.8662 102.252C59.608 103.021 58.7675 103.823 57.3116 104.675C55.876 105.523 54.3001 106.107 52.6585 106.4C51.1593 106.713 49.6 106.558 48.1921 105.955C46.8736 105.358 46.2144 104.039 46.2144 101.999C46.1742 92.6844 44.445 83.4539 41.1107 74.7561C37.7338 65.7451 32.9519 57.3253 26.9425 49.8093C24.4483 49.4598 21.9346 49.2672 19.4162 49.2325C16.7792 49.1958 13.8859 49.0896 10.7362 48.9138C9.80223 48.9138 8.71814 48.3974 7.48389 47.3646C6.33835 46.4274 5.34824 45.3149 4.55026 44.0684C3.88994 43.1534 3.59419 42.0253 3.72071 40.904C3.89285 39.9555 4.91285 39.5233 6.7807 39.6075C8.74195 39.6899 10.7197 39.7559 12.7139 39.7943C14.7081 39.8328 16.6913 39.9481 18.6471 40.1184C15.4168 36.456 12.4191 32.9052 9.6539 29.4662C7.19218 26.4567 4.97308 23.2567 3.01752 19.8962C1.36942 16.9571 0.380555 14.3256 0.0838956 11.9798C-0.091776 10.9135 0.00946773 9.82004 0.37791 8.80418C0.746353 7.78831 1.36963 6.88417 2.18797 6.17845C3.89101 4.81601 6.72027 3.58177 10.6757 2.47571C15.2685 1.26622 19.9706 0.519027 24.7121 0.245272C30.6636 -0.135337 36.6353 -0.0729055 42.5776 0.432055C49.2813 0.976364 55.9214 2.13116 62.4152 3.88209C68.7872 5.54375 75.0007 7.76258 80.9839 10.513C86.0349 12.8054 90.861 15.5642 95.3993 18.7535C99.3585 21.6065 102.316 24.4779 104.272 27.3676C106.227 30.2573 106.823 32.8942 106.057 35.2785C105.677 36.7394 104.906 38.069 103.827 39.1241C102.735 40.1623 101.456 40.9843 100.058 41.5468C98.55 42.1595 96.9598 42.5464 95.3389 42.695C93.642 42.8653 91.9322 42.8653 90.2353 42.695C87.8363 42.5334 85.4505 42.2141 83.0935 41.7391C80.7971 41.2703 79.1801 40.611 78.2426 39.7613C79.6251 39.1425 81.085 38.7138 82.5826 38.4868C84.3512 38.1732 86.098 37.7475 87.8126 37.2123C89.176 36.8545 90.4139 36.1262 91.389 35.1082C92.1507 34.2146 91.8523 32.9583 90.4935 31.3395C88.8988 29.5077 87.1247 27.8403 85.1976 26.3622C82.7171 24.4251 80.0947 22.6769 77.3526 21.1323C74.1628 19.328 70.8824 17.6887 67.5244 16.2209C63.9183 14.6366 60.211 13.2932 56.4271 12.1995C53.4701 11.407 50.4641 10.8105 47.4285 10.4141C44.2421 9.99289 41.01 9.71639 37.7321 9.58454C34.4542 9.45269 31.3063 9.45269 28.2885 9.58454C25.2706 9.71272 22.5238 9.94712 20.0479 10.2877C17.1583 10.7968 15.7336 11.8955 15.7739 13.5839C15.8141 15.2723 16.8341 17.4844 18.8338 20.2203C21.374 23.5812 24.1014 26.7964 27.003 29.8507C30.4457 33.5535 34.1246 37.6683 38.0398 42.195C42.1084 42.8106 46.1354 43.6748 50.0984 44.7826C53.3918 45.6864 56.5782 46.9426 59.6025 48.5293C60.3871 49.0374 61.0769 49.6789 61.6406 50.4246Z" fill="#6CC2B6"/>
<path d="M122.234 115.535C122.254 116.246 122.75 117.109 124.203 117.109C125.371 117.109 126.234 116.535 126.234 115.488C126.234 114.602 125.641 114.223 124.832 114.02L123.941 113.793C123.438 113.672 123.195 113.41 123.195 113.051C123.195 112.523 123.637 112.223 124.27 112.223C124.98 112.223 125.348 112.609 125.391 113.086H126.168C126.148 112.074 125.266 111.547 124.281 111.547C123.277 111.547 122.387 112.098 122.387 113.109C122.387 113.961 123.004 114.367 123.668 114.531L124.566 114.758C125.148 114.902 125.422 115.133 125.422 115.555C125.422 116.09 124.984 116.43 124.273 116.43C123.492 116.43 123.074 116.02 123.027 115.535H122.234Z" fill="#6CC2B6"/>
<path d="M129.434 116.492H129.461V117H130.215V114.18C130.215 113.281 129.547 112.816 128.648 112.816C127.59 112.816 127.113 113.379 127.074 114.086H127.816C127.852 113.703 128.133 113.449 128.625 113.449C129.141 113.449 129.43 113.723 129.43 114.223V114.625H128.371C127.426 114.629 126.922 115.09 126.922 115.816C126.922 116.578 127.469 117.066 128.266 117.066C128.875 117.066 129.242 116.812 129.434 116.492ZM128.496 116.445C128.094 116.445 127.719 116.23 127.719 115.777C127.719 115.422 127.953 115.172 128.48 115.172H129.43V115.637C129.43 116.113 129.027 116.445 128.496 116.445Z" fill="#6CC2B6"/>
<path d="M134.586 112.883H133.746L132.703 116.195H132.676L131.641 112.883H130.766L132.254 117.043L132.199 117.238C132.098 117.637 131.906 117.863 131.41 117.863C131.312 117.863 131.16 117.855 131.098 117.844V118.457C131.199 118.473 131.391 118.492 131.562 118.492C132.484 118.492 132.805 117.914 133.051 117.262L133.156 116.977C133.16 116.961 134.586 112.883 134.586 112.883Z" fill="#6CC2B6"/>
<path d="M135.211 117H136V112.883H135.211V117ZM135.125 111.879C135.125 112.145 135.34 112.344 135.605 112.344C135.871 112.344 136.086 112.145 136.086 111.879C136.086 111.613 135.871 111.414 135.605 111.414C135.34 111.414 135.125 111.613 135.125 111.879Z" fill="#6CC2B6"/>
<path d="M137.18 117H137.965V114.523C137.965 113.973 138.266 113.512 138.914 113.512C139.461 113.512 139.855 113.832 139.855 114.504V117H140.641V114.355C140.641 113.352 140.027 112.816 139.184 112.816C138.508 112.816 138.129 113.176 137.984 113.445H137.957V112.883H137.18V117Z" fill="#6CC2B6"/>
<path d="M143.375 117.918C142.852 117.918 142.52 117.641 142.445 117.32H141.656C141.738 118.008 142.277 118.539 143.371 118.539C144.301 118.539 145.172 118.043 145.172 116.965V112.883H144.406V113.469H144.379C144.195 113.113 143.75 112.82 143.188 112.82C142.23 112.82 141.566 113.5 141.566 114.727V115.039C141.566 116.281 142.234 116.957 143.188 116.957C143.754 116.957 144.199 116.664 144.359 116.305H144.387V116.941C144.387 117.555 143.992 117.918 143.375 117.918ZM143.391 113.477C143.996 113.477 144.387 113.973 144.387 114.773V115.02C144.387 115.832 144.016 116.316 143.391 116.316C142.746 116.316 142.363 115.836 142.363 115.02V114.773C142.363 113.941 142.746 113.477 143.391 113.477Z" fill="#6CC2B6"/>
<path d="M147.969 117H149.988C151.113 117 151.848 116.441 151.848 115.504C151.848 114.738 151.371 114.277 150.68 114.191V114.156C151.219 114 151.555 113.598 151.555 112.98C151.555 112.172 150.961 111.668 150.043 111.668H147.969V117ZM148.77 112.328H149.887C150.434 112.328 150.75 112.621 150.75 113.117C150.75 113.668 150.379 113.938 149.547 113.938H148.77V112.328ZM148.77 114.574H149.961C150.641 114.574 151.027 114.91 151.027 115.484C151.027 116.074 150.629 116.34 149.648 116.34H148.77V114.574Z" fill="#6CC2B6"/>
<path d="M156.078 112.883H155.289V115.395C155.289 116.023 154.895 116.371 154.348 116.371C153.852 116.371 153.426 116.148 153.426 115.406V112.883H152.637V115.625C152.637 116.578 153.23 117.066 154.078 117.066C154.742 117.066 155.129 116.766 155.27 116.441H155.301V117H156.078V112.883Z" fill="#6CC2B6"/>
<path d="M160.531 112.883H159.691L158.648 116.195H158.621L157.586 112.883H156.711L158.199 117.043L158.145 117.238C158.043 117.637 157.852 117.863 157.355 117.863C157.258 117.863 157.105 117.855 157.043 117.844V118.457C157.145 118.473 157.336 118.492 157.508 118.492C158.43 118.492 158.75 117.914 158.996 117.262L159.102 116.977C159.105 116.961 160.531 112.883 160.531 112.883Z" fill="#6CC2B6"/>
<path d="M164.996 116.492H165.023V117H165.777V114.18C165.777 113.281 165.109 112.816 164.211 112.816C163.152 112.816 162.676 113.379 162.637 114.086H163.379C163.414 113.703 163.695 113.449 164.188 113.449C164.703 113.449 164.992 113.723 164.992 114.223V114.625H163.934C162.988 114.629 162.484 115.09 162.484 115.816C162.484 116.578 163.031 117.066 163.828 117.066C164.438 117.066 164.805 116.812 164.996 116.492ZM164.059 116.445C163.656 116.445 163.281 116.23 163.281 115.777C163.281 115.422 163.516 115.172 164.043 115.172H164.992V115.637C164.992 116.113 164.59 116.445 164.059 116.445Z" fill="#6CC2B6"/>
<path d="M166.883 117H167.668V114.523C167.668 113.973 167.969 113.512 168.617 113.512C169.164 113.512 169.559 113.832 169.559 114.504V117H170.344V114.355C170.344 113.352 169.73 112.816 168.887 112.816C168.211 112.816 167.832 113.176 167.688 113.445H167.66V112.883H166.883V117Z" fill="#6CC2B6"/>
<path d="M172.887 112.82C171.867 112.82 171.266 113.617 171.266 114.758V115.121C171.266 116.285 171.836 117.059 172.887 117.059C173.441 117.059 173.875 116.797 174.094 116.375H174.117V117H174.883V111.387H174.094V113.465H174.066C173.867 113.09 173.438 112.82 172.887 112.82ZM173.059 113.484C173.703 113.484 174.102 113.992 174.102 114.785V115.102C174.102 115.934 173.707 116.395 173.066 116.395C172.484 116.395 172.066 115.965 172.066 115.098V114.785C172.066 113.914 172.484 113.484 173.059 113.484Z" fill="#6CC2B6"/>
<path d="M177.473 114.074C177.473 114.824 178.094 115.074 178.852 115.23C179.41 115.34 179.883 115.422 179.883 115.863C179.883 116.188 179.617 116.461 179.035 116.461C178.523 116.461 178.219 116.227 178.168 115.875H177.398C177.398 116.613 178.023 117.07 178.98 117.07C179.992 117.07 180.652 116.594 180.652 115.766C180.652 114.977 180.035 114.75 179.266 114.613C178.797 114.527 178.234 114.441 178.234 113.996C178.234 113.625 178.559 113.418 179.016 113.418C179.609 113.418 179.797 113.758 179.82 114.055H180.539C180.539 113.344 180.012 112.812 179.039 112.812C178.223 112.812 177.473 113.191 177.473 114.074Z" fill="#6CC2B6"/>
<path d="M183.168 117.07C184.145 117.07 184.684 116.512 184.82 115.84H184.059C183.941 116.207 183.637 116.434 183.184 116.434C182.562 116.434 182.18 115.941 182.18 115.211V115.125H184.871V114.734C184.871 113.586 184.227 112.812 183.137 112.812C182.051 112.812 181.395 113.566 181.395 114.695V115.129C181.395 116.328 182.078 117.07 183.168 117.07ZM182.18 114.547V114.535C182.18 113.926 182.555 113.441 183.141 113.441C183.715 113.441 184.094 113.922 184.094 114.535V114.547H182.18Z" fill="#6CC2B6"/>
<path d="M185.863 117H186.648V111.387H185.863V117Z" fill="#6CC2B6"/>
<path d="M187.848 117H188.633V111.387H187.848V117Z" fill="#6CC2B6"/>
<path d="M191.238 114.074C191.238 114.824 191.859 115.074 192.617 115.23C193.176 115.34 193.648 115.422 193.648 115.863C193.648 116.188 193.383 116.461 192.801 116.461C192.289 116.461 191.984 116.227 191.934 115.875H191.164C191.164 116.613 191.789 117.07 192.746 117.07C193.758 117.07 194.418 116.594 194.418 115.766C194.418 114.977 193.801 114.75 193.031 114.613C192.562 114.527 192 114.441 192 113.996C192 113.625 192.324 113.418 192.781 113.418C193.375 113.418 193.562 113.758 193.586 114.055H194.305C194.305 113.344 193.777 112.812 192.805 112.812C191.988 112.812 191.238 113.191 191.238 114.074Z" fill="#6CC2B6"/>
<path d="M196.934 117.07C197.91 117.07 198.449 116.512 198.586 115.84H197.824C197.707 116.207 197.402 116.434 196.949 116.434C196.328 116.434 195.945 115.941 195.945 115.211V115.125H198.637V114.734C198.637 113.586 197.992 112.812 196.902 112.812C195.816 112.812 195.16 113.566 195.16 114.695V115.129C195.16 116.328 195.844 117.07 196.934 117.07ZM195.945 114.547V114.535C195.945 113.926 196.32 113.441 196.906 113.441C197.48 113.441 197.859 113.922 197.859 114.535V114.547H195.945Z" fill="#6CC2B6"/>
<path d="M199.434 115.113C199.434 116.246 200.074 117.07 201.184 117.07C202.137 117.07 202.703 116.578 202.82 115.801H202.066C202 116.125 201.727 116.398 201.234 116.398C200.617 116.398 200.227 115.898 200.227 115.117V114.75C200.227 113.961 200.598 113.48 201.23 113.48C201.652 113.48 201.961 113.789 202.039 114.137H202.797C202.762 113.453 202.168 112.812 201.184 112.812C200.086 112.812 199.434 113.609 199.434 114.73V115.113Z" fill="#6CC2B6"/>
<path d="M205.355 112.812C204.18 112.812 203.543 113.648 203.543 114.762V115.105C203.543 116.25 204.18 117.07 205.355 117.07C206.527 117.07 207.156 116.25 207.156 115.105V114.758C207.156 113.645 206.523 112.812 205.355 112.812ZM205.352 113.461C206.02 113.461 206.363 113.988 206.363 114.777V115.094C206.363 115.875 206.023 116.414 205.352 116.414C204.684 116.414 204.336 115.871 204.336 115.094V114.777C204.336 113.992 204.684 113.461 205.352 113.461Z" fill="#6CC2B6"/>
<path d="M208.133 117H208.918V114.523C208.918 113.973 209.219 113.512 209.867 113.512C210.414 113.512 210.809 113.832 210.809 114.504V117H211.594V114.355C211.594 113.352 210.98 112.816 210.137 112.816C209.461 112.816 209.082 113.176 208.938 113.445H208.91V112.883H208.133V117Z" fill="#6CC2B6"/>
<path d="M214.137 112.82C213.117 112.82 212.516 113.617 212.516 114.758V115.121C212.516 116.285 213.086 117.059 214.137 117.059C214.691 117.059 215.125 116.797 215.344 116.375H215.367V117H216.133V111.387H215.344V113.465H215.316C215.117 113.09 214.688 112.82 214.137 112.82ZM214.309 113.484C214.953 113.484 215.352 113.992 215.352 114.785V115.102C215.352 115.934 214.957 116.395 214.316 116.395C213.734 116.395 213.316 115.965 213.316 115.098V114.785C213.316 113.914 213.734 113.484 214.309 113.484Z" fill="#6CC2B6"/>
<path d="M218.895 117H219.684V114.523C219.684 113.973 219.98 113.512 220.633 113.512C221.184 113.512 221.574 113.832 221.574 114.504V117H222.363V114.355C222.363 113.352 221.746 112.816 220.902 112.816C220.23 112.816 219.855 113.176 219.711 113.445H219.684V111.387H218.895V117Z" fill="#6CC2B6"/>
<path d="M225.73 116.492H225.758V117H226.512V114.18C226.512 113.281 225.844 112.816 224.945 112.816C223.887 112.816 223.41 113.379 223.371 114.086H224.113C224.148 113.703 224.43 113.449 224.922 113.449C225.438 113.449 225.727 113.723 225.727 114.223V114.625H224.668C223.723 114.629 223.219 115.09 223.219 115.816C223.219 116.578 223.766 117.066 224.562 117.066C225.172 117.066 225.539 116.812 225.73 116.492ZM224.793 116.445C224.391 116.445 224.016 116.23 224.016 115.777C224.016 115.422 224.25 115.172 224.777 115.172H225.727V115.637C225.727 116.113 225.324 116.445 224.793 116.445Z" fill="#6CC2B6"/>
<path d="M227.617 117H228.402V114.523C228.402 113.973 228.703 113.512 229.352 113.512C229.898 113.512 230.293 113.832 230.293 114.504V117H231.078V114.355C231.078 113.352 230.465 112.816 229.621 112.816C228.945 112.816 228.566 113.176 228.422 113.445H228.395V112.883H227.617V117Z" fill="#6CC2B6"/>
<path d="M233.621 112.82C232.602 112.82 232 113.617 232 114.758V115.121C232 116.285 232.57 117.059 233.621 117.059C234.176 117.059 234.609 116.797 234.828 116.375H234.852V117H235.617V111.387H234.828V113.465H234.801C234.602 113.09 234.172 112.82 233.621 112.82ZM233.793 113.484C234.438 113.484 234.836 113.992 234.836 114.785V115.102C234.836 115.934 234.441 116.395 233.801 116.395C233.219 116.395 232.801 115.965 232.801 115.098V114.785C232.801 113.914 233.219 113.484 233.793 113.484Z" fill="#6CC2B6"/>
<path d="M238.367 117H239.152V114.523C239.152 113.973 239.453 113.512 240.102 113.512C240.648 113.512 241.043 113.832 241.043 114.504V117H241.828V114.355C241.828 113.352 241.215 112.816 240.371 112.816C239.695 112.816 239.316 113.176 239.172 113.445H239.145V112.883H238.367V117Z" fill="#6CC2B6"/>
<path d="M244.52 117.07C245.496 117.07 246.035 116.512 246.172 115.84H245.41C245.293 116.207 244.988 116.434 244.535 116.434C243.914 116.434 243.531 115.941 243.531 115.211V115.125H246.223V114.734C246.223 113.586 245.578 112.812 244.488 112.812C243.402 112.812 242.746 113.566 242.746 114.695V115.129C242.746 116.328 243.43 117.07 244.52 117.07ZM243.531 114.547V114.535C243.531 113.926 243.906 113.441 244.492 113.441C245.066 113.441 245.445 113.922 245.445 114.535V114.547H243.531Z" fill="#6CC2B6"/>
<path d="M249.473 116.492H249.5V117H250.254V114.18C250.254 113.281 249.586 112.816 248.688 112.816C247.629 112.816 247.152 113.379 247.113 114.086H247.855C247.891 113.703 248.172 113.449 248.664 113.449C249.18 113.449 249.469 113.723 249.469 114.223V114.625H248.41C247.465 114.629 246.961 115.09 246.961 115.816C246.961 116.578 247.508 117.066 248.305 117.066C248.914 117.066 249.281 116.812 249.473 116.492ZM248.535 116.445C248.133 116.445 247.758 116.23 247.758 115.777C247.758 115.422 247.992 115.172 248.52 115.172H249.469V115.637C249.469 116.113 249.066 116.445 248.535 116.445Z" fill="#6CC2B6"/>
<path d="M251.359 117H252.156V114.516C252.156 113.961 252.387 113.523 253.098 113.523C253.23 113.523 253.375 113.531 253.449 113.547V112.84C253.367 112.828 253.273 112.82 253.172 112.82C252.594 112.82 252.285 113.156 252.176 113.406H252.148V112.883H251.359V117Z" fill="#6CC2B6"/>
<path d="M259.023 112.883H258.184L257.141 116.195H257.113L256.078 112.883H255.203L256.691 117.043L256.637 117.238C256.535 117.637 256.344 117.863 255.848 117.863C255.75 117.863 255.598 117.855 255.535 117.844V118.457C255.637 118.473 255.828 118.492 256 118.492C256.922 118.492 257.242 117.914 257.488 117.262L257.594 116.977C257.598 116.961 259.023 112.883 259.023 112.883Z" fill="#6CC2B6"/>
<path d="M261.23 112.812C260.055 112.812 259.418 113.648 259.418 114.762V115.105C259.418 116.25 260.055 117.07 261.23 117.07C262.402 117.07 263.031 116.25 263.031 115.105V114.758C263.031 113.645 262.398 112.812 261.23 112.812ZM261.227 113.461C261.895 113.461 262.238 113.988 262.238 114.777V115.094C262.238 115.875 261.898 116.414 261.227 116.414C260.559 116.414 260.211 115.871 260.211 115.094V114.777C260.211 113.992 260.559 113.461 261.227 113.461Z" fill="#6CC2B6"/>
<path d="M267.391 112.883H266.602V115.395C266.602 116.023 266.207 116.371 265.66 116.371C265.164 116.371 264.738 116.148 264.738 115.406V112.883H263.949V115.625C263.949 116.578 264.543 117.066 265.391 117.066C266.055 117.066 266.441 116.766 266.582 116.441H266.613V117H267.391V112.883Z" fill="#6CC2B6"/>
<line x1="118.5" y1="116.5" x2="51.5" y2="116.5" stroke="#6CC2B6" stroke-linecap="round"/>
<line x1="48.5" y1="116.5" x2="46.5" y2="116.5" stroke="#6CC2B6" stroke-linecap="round"/>
</svg>
